<svg xmlns="http://www.w3.org/2000/svg" version="1.0" width="1280.000000pt" height="1280.000000pt" viewBox="0 0 1280.000000 1280.000000" preserveAspectRatio="xMidYMid meet">
<metadata>
Created by potrace 1.15, written by Peter Selinger 2001-2017
</metadata>
<g transform="translate(0.000000,1280.000000) scale(0.100000,-0.100000)" fill="#4caf50" stroke="none">
<path d="M5775 10699 c-667 -50 -1197 -183 -1690 -424 -350 -171 -635 -370 -909 -636 -579 -559 -949 -1314 -1080 -2200 -50 -339 -71 -876 -47 -1225 39 -564 141 -1047 309 -1464 47 -117 346 -759 430 -923 207 -406 554 -835 897 -1111 523 -419 1108 -645 1895 -732 199 -22 745 -30 992 -15 834 51 1485 209 2068 501 892 447 1574 1238 1895 2195 200 599 298 1317 282 2080 -8 374 -28 583 -82 882 -111 603 -338 1144 -658 1567 -234 309 -557 608 -867 801 -291 181 -659 336 -1015 430 -168 45 -250 61 -715 145 -449 81 -537 95 -742 116 -181 18 -784 27 -963 13z m1159 -2429 c80 -10 103 -28 195 -151 161 -214 254 -498 303 -924 19 -163 15 -726 -6 -942 -40 -414 -114 -714 -229 -938 -148 -286 -423 -502 -748 -589 -156 -41 -234 -50 -429 -51 -201 0 -267 9 -415 56 -138 44 -164 63 -192 134 -64 164 -117 407 -150 680 -22 190 -26 879 -5 1070 42 384 121 686 239 918 179 350 490 603 858 698 167 43 417 60 579 39z"/>
</g>
</svg>